<svg width="127" height="127" viewBox="0 0 127 127" fill="none" xmlns="http://www.w3.org/2000/svg">
<circle cx="63.5" cy="63.5" r="63.5" fill="#015A9E"/>
<circle cx="63.5" cy="63.5" r="63.5" fill="url(#paint0_linear_422_3040)"/>
<circle cx="63.5" cy="63.5" r="63.5" fill="#0E4D65"/>
<g clip-path="url(#clip0_422_3040)">
<path d="M91.9081 76.2208L99.9969 68.1325L91.9081 60.0437L93.2113 58.7404C95.4662 56.4855 95.4662 52.8168 93.2118 50.5619C92.1193 49.4699 90.6668 48.8684 89.122 48.8684C87.5778 48.8684 86.1253 49.4699 85.0333 50.5619L83.73 51.8651L75.6412 43.7764L73.2544 46.1637V49.9366C77.4766 50.9428 80.6261 54.7469 80.6261 59.2726C80.6261 63.7987 77.4766 67.6028 73.2544 68.6085V80.3076H66.2522L64.8562 81.7035L75.6412 92.4881L83.73 84.3993L84.8533 85.523C87.1082 87.7779 90.7769 87.7779 93.0318 85.523C95.2867 83.2681 95.2867 79.5994 93.0318 77.3445L91.9081 76.2208Z" fill="white"/>
<path d="M69.4444 76.4963V65.0571H71.0328C74.222 65.0571 76.8161 62.463 76.8161 59.2738C76.8161 56.0851 74.222 53.491 71.0328 53.491H69.4444V42.0519H58.0052V40.2091C58.0052 37.0199 55.4111 34.4258 52.222 34.4258C49.0333 34.4258 46.4391 37.0199 46.4391 40.2091V42.0519H35V53.491H36.5889C39.3868 53.491 41.7265 55.4881 42.2581 58.1318C42.4887 58.4541 42.6261 58.8478 42.6261 59.2738C42.6261 59.6998 42.4887 60.0936 42.2581 60.4164C41.7265 63.0596 39.3868 65.0571 36.5889 65.0571H35V76.4963H46.4391V74.653C46.4391 71.4643 49.0333 68.8702 52.222 68.8702C55.4111 68.8702 58.0052 71.4643 58.0052 74.653V76.4963H69.4444Z" fill="white"/>
<path d="M69.4444 76.4963V65.0571H71.0328C74.222 65.0571 76.8161 62.463 76.8161 59.2738C76.8161 56.0851 74.222 53.491 71.0328 53.491H69.4444V42.0519H58.0052V40.2091C58.0052 37.0199 55.4111 34.4258 52.222 34.4258C49.0333 34.4258 46.4391 37.0199 46.4391 40.2091V42.0519H35V53.491H36.5889C39.3868 53.491 41.7265 55.4881 42.2581 58.1318C42.4887 58.4541 42.6261 58.8478 42.6261 59.2738C42.6261 59.6998 42.4887 60.0936 42.2581 60.4164C41.7265 63.0596 39.3868 65.0571 36.5889 65.0571H35V76.4963H46.4391V74.653C46.4391 71.4643 49.0333 68.8702 52.222 68.8702C55.4111 68.8702 58.0052 71.4643 58.0052 74.653V76.4963H69.4444Z" fill="url(#paint1_linear_422_3040)"/>
</g>
<defs>
<linearGradient id="paint0_linear_422_3040" x1="-5.39879" y1="-91.7222" x2="116.794" y2="-78.3902" gradientUnits="userSpaceOnUse">
<stop stop-color="#1FC76A"/>
<stop offset="1" stop-color="#009743"/>
</linearGradient>
<linearGradient id="paint1_linear_422_3040" x1="33.2224" y1="4.04154" x2="73.4615" y2="8.40531" gradientUnits="userSpaceOnUse">
<stop stop-color="#1FC76A"/>
<stop offset="1" stop-color="#009743"/>
</linearGradient>
<clipPath id="clip0_422_3040">
<rect width="65" height="65" fill="white" transform="translate(35 31)"/>
</clipPath>
</defs>
</svg>
