<svg width="127" height="127" viewBox="0 0 127 127" fill="none" xmlns="http://www.w3.org/2000/svg">
<circle cx="63.5" cy="63.5" r="63.5" fill="#015A9E"/>
<circle cx="63.5" cy="63.5" r="63.5" fill="url(#paint0_linear_422_3035)"/>
<circle cx="63.5" cy="63.5" r="63.5" fill="#0E4D65"/>
<path d="M53.4777 41.2816L55.5605 47.0657C57.8741 53.4852 62.9293 58.5404 69.3489 60.8541L75.1329 62.9368C75.6543 63.1262 75.6543 63.8654 75.1329 64.0522L69.3489 66.1349C62.9293 68.4486 57.8741 73.5038 55.5605 79.9233L53.4777 85.7074C53.2884 86.2287 52.5491 86.2287 52.3624 85.7074L50.2796 79.9233C47.966 73.5038 42.9108 68.4486 36.4912 66.1349L30.7072 64.0522C30.1858 63.8628 30.1858 63.1236 30.7072 62.9368L36.4912 60.8541C42.9108 58.5404 47.966 53.4852 50.2796 47.0657L52.3624 41.2816C52.5491 40.7577 53.2884 40.7577 53.4777 41.2816Z" fill="white"/>
<path d="M53.4777 41.2816L55.5605 47.0657C57.8741 53.4852 62.9293 58.5404 69.3489 60.8541L75.1329 62.9368C75.6543 63.1262 75.6543 63.8654 75.1329 64.0522L69.3489 66.1349C62.9293 68.4486 57.8741 73.5038 55.5605 79.9233L53.4777 85.7074C53.2884 86.2287 52.5491 86.2287 52.3624 85.7074L50.2796 79.9233C47.966 73.5038 42.9108 68.4486 36.4912 66.1349L30.7072 64.0522C30.1858 63.8628 30.1858 63.1236 30.7072 62.9368L36.4912 60.8541C42.9108 58.5404 47.966 53.4852 50.2796 47.0657L52.3624 41.2816C52.5491 40.7577 53.2884 40.7577 53.4777 41.2816Z" fill="url(#paint1_linear_422_3035)"/>
<path d="M79.521 27.3879L80.5767 30.3162C81.749 33.5662 84.3091 36.1262 87.559 37.2986L90.4874 38.3542C90.7519 38.4502 90.7519 38.8237 90.4874 38.9197L87.559 39.9753C84.3091 41.1477 81.749 43.7077 80.5767 46.9577L79.521 49.8861C79.425 50.1506 79.0515 50.1506 78.9556 49.8861L77.8999 46.9577C76.7275 43.7077 74.1675 41.1477 70.9175 39.9753L67.9892 38.9197C67.7246 38.8237 67.7246 38.4502 67.9892 38.3542L70.9175 37.2986C74.1675 36.1262 76.7275 33.5662 77.8999 30.3162L78.9556 27.3879C79.0515 27.1207 79.4276 27.1207 79.521 27.3879Z" fill="white"/>
<path d="M79.521 77.1135L80.5767 80.0418C81.749 83.2918 84.3091 85.8518 87.559 87.0242L90.4874 88.0798C90.7519 88.1758 90.7519 88.5493 90.4874 88.6453L87.559 89.7009C84.3091 90.8733 81.749 93.4333 80.5767 96.6833L79.521 99.6116C79.425 99.8762 79.0515 99.8762 78.9556 99.6116L77.8999 96.6833C76.7275 93.4333 74.1675 90.8733 70.9175 89.7009L67.9892 88.6453C67.7246 88.5493 67.7246 88.1758 67.9892 88.0798L70.9175 87.0242C74.1675 85.8518 76.7275 83.2918 77.8999 80.0418L78.9556 77.1135C79.0515 76.8489 79.4276 76.8489 79.521 77.1135Z" fill="white"/>
<defs>
<linearGradient id="paint0_linear_422_3035" x1="-5.39879" y1="-91.7222" x2="116.794" y2="-78.3902" gradientUnits="userSpaceOnUse">
<stop stop-color="#1FC76A"/>
<stop offset="1" stop-color="#009743"/>
</linearGradient>
<linearGradient id="paint1_linear_422_3035" x1="28.3944" y1="8.23721" x2="71.8911" y2="12.9828" gradientUnits="userSpaceOnUse">
<stop stop-color="#1FC76A"/>
<stop offset="1" stop-color="#009743"/>
</linearGradient>
</defs>
</svg>
