<svg width="127" height="127" viewBox="0 0 127 127" fill="none" xmlns="http://www.w3.org/2000/svg">
<circle cx="63.5" cy="63.5" r="63.5" fill="#015A9E"/>
<circle cx="63.5" cy="63.5" r="63.5" fill="url(#paint0_linear_422_3049)"/>
<circle cx="63.5" cy="63.5" r="63.5" fill="#0E4D65"/>
<path d="M63.6019 58.0098C59.6019 58.0098 56.0019 60.4098 54.4019 64.0098H72.8019C71.2019 60.4098 67.8019 58.0098 63.6019 58.0098Z" fill="white"/>
<path d="M63.6023 53.9961C65.8114 53.9961 67.6023 52.2052 67.6023 49.9961C67.6023 47.787 65.8114 45.9961 63.6023 45.9961C61.3932 45.9961 59.6023 47.787 59.6023 49.9961C59.6023 52.2052 61.3932 53.9961 63.6023 53.9961Z" fill="white"/>
<path d="M82.4 32H45.6C41.4 32 38 35.4 38 39.6V88.4C38 92.6 41.4 96 45.6 96H82.4C86.6 96 90 92.6 90 88.4V39.6C90 35.4 86.6 32 82.4 32ZM57.8 55.4C56.6 54 55.8 52.2 55.8 50C55.8 45.6 59.4 42 63.8 42C68.2 42 71.8 45.6 71.8 50C71.8 52 71 53.8 69.8 55.4C73.8 57.4 76.8 61.2 77.6 65.8C77.6 66.4 77.6 67 77.2 67.4C76.6 67.8 76 68 75.4 68H51.8C51.2 68 50.6 67.8 50.2 67.2C49.8 66.8 49.6 66.2 49.8 65.6C50.6 61 53.6 57.2 57.8 55.4ZM80 86H48C46.8 86 46 85.2 46 84C46 82.8 46.8 82 48 82H80C81.2 82 82 82.8 82 84C82 85.2 81.2 86 80 86ZM80 78H48C46.8 78 46 77.2 46 76C46 74.8 46.8 74 48 74H80C81.2 74 82 74.8 82 76C82 77.2 81.2 78 80 78Z" fill="white"/>
<path d="M82.4 32H45.6C41.4 32 38 35.4 38 39.6V88.4C38 92.6 41.4 96 45.6 96H82.4C86.6 96 90 92.6 90 88.4V39.6C90 35.4 86.6 32 82.4 32ZM57.8 55.4C56.6 54 55.8 52.2 55.8 50C55.8 45.6 59.4 42 63.8 42C68.2 42 71.8 45.6 71.8 50C71.8 52 71 53.8 69.8 55.4C73.8 57.4 76.8 61.2 77.6 65.8C77.6 66.4 77.6 67 77.2 67.4C76.6 67.8 76 68 75.4 68H51.8C51.2 68 50.6 67.8 50.2 67.2C49.8 66.8 49.6 66.2 49.8 65.6C50.6 61 53.6 57.2 57.8 55.4ZM80 86H48C46.8 86 46 85.2 46 84C46 82.8 46.8 82 48 82H80C81.2 82 82 82.8 82 84C82 85.2 81.2 86 80 86ZM80 78H48C46.8 78 46 77.2 46 76C46 74.8 46.8 74 48 74H80C81.2 74 82 74.8 82 76C82 77.2 81.2 78 80 78Z" fill="url(#paint1_linear_422_3049)"/>
<defs>
<linearGradient id="paint0_linear_422_3049" x1="-5.39879" y1="-91.7222" x2="116.794" y2="-78.3902" gradientUnits="userSpaceOnUse">
<stop stop-color="#1FC76A"/>
<stop offset="1" stop-color="#009743"/>
</linearGradient>
<linearGradient id="paint1_linear_422_3049" x1="35.7895" y1="-14.2222" x2="86.0221" y2="-9.76917" gradientUnits="userSpaceOnUse">
<stop stop-color="#1FC76A"/>
<stop offset="1" stop-color="#009743"/>
</linearGradient>
</defs>
</svg>
