<svg width="24" height="25" viewBox="0 0 24 25" fill="none" xmlns="http://www.w3.org/2000/svg">
<path d="M19.3125 19.5703C18.9688 18.2266 18.2656 17.1328 17.2031 16.2891C16.1719 15.4766 14.9375 15.0547 13.5 15.0234H10.5C9.0625 15.0547 7.82812 15.4766 6.79688 16.2891C5.73438 17.1328 5.03125 18.2266 4.6875 19.5703C3.6875 18.6016 2.90625 17.4766 2.34375 16.1953C1.78125 14.9141 1.5 13.5234 1.5 12.0234C1.53125 10.0547 2.01562 8.28906 2.95312 6.72656C3.85938 5.13281 5.10938 3.88281 6.70312 2.97656C8.26562 2.03906 10.0312 1.55469 12 1.52344C13.9688 1.55469 15.7344 2.03906 17.2969 2.97656C18.8906 3.88281 20.1406 5.13281 21.0469 6.72656C21.9844 8.28906 22.4688 10.0547 22.5 12.0234C22.5 13.5234 22.2188 14.9141 21.6562 16.1953C21.0938 17.4766 20.3125 18.6016 19.3125 19.5703ZM18 20.6484C16.25 21.8672 14.25 22.4922 12 22.5234C9.75 22.4922 7.75 21.8672 6 20.6484C6.125 19.4609 6.60938 18.4922 7.45312 17.7422C8.26562 16.9609 9.28125 16.5547 10.5 16.5234H13.5C14.7188 16.5547 15.7344 16.9609 16.5469 17.7422C17.3906 18.4922 17.875 19.4609 18 20.6484ZM12 24.0234C14.1875 23.9922 16.1875 23.4609 18 22.4297C19.8125 21.3672 21.2812 19.8984 22.4062 18.0234C23.4688 16.1172 24 14.1172 24 12.0234C24 9.92969 23.4688 7.92969 22.4062 6.02344C21.2812 4.14844 19.8125 2.67969 18 1.61719C16.1875 0.585938 14.1875 0.0546875 12 0.0234375C9.8125 0.0546875 7.8125 0.585938 6 1.61719C4.1875 2.67969 2.71875 4.14844 1.59375 6.02344C0.53125 7.92969 0 9.92969 0 12.0234C0 14.1172 0.53125 16.1172 1.59375 18.0234C2.71875 19.8984 4.1875 21.3672 6 22.4297C7.8125 23.4609 9.8125 23.9922 12 24.0234ZM12 12.0234C11.1562 11.9922 10.5 11.6172 10.0312 10.8984C9.65625 10.1484 9.65625 9.39844 10.0312 8.64844C10.5 7.92969 11.1562 7.55469 12 7.52344C12.8438 7.55469 13.5 7.92969 13.9688 8.64844C14.3438 9.39844 14.3438 10.1484 13.9688 10.8984C13.5 11.6172 12.8438 11.9922 12 12.0234ZM8.25 9.77344C8.28125 11.1797 8.90625 12.2578 10.125 13.0078C11.375 13.6953 12.625 13.6953 13.875 13.0078C15.0938 12.2578 15.7188 11.1797 15.75 9.77344C15.7188 8.36719 15.0938 7.28906 13.875 6.53906C12.625 5.85156 11.375 5.85156 10.125 6.53906C8.90625 7.28906 8.28125 8.36719 8.25 9.77344Z" fill="#1D1D1D"/>
</svg>
