<svg width="127" height="127" viewBox="0 0 127 127" fill="none" xmlns="http://www.w3.org/2000/svg">
<circle cx="63.5" cy="63.5" r="63.5" fill="#015A9E"/>
<circle cx="63.5" cy="63.5" r="63.5" fill="url(#paint0_linear_422_3076)"/>
<circle cx="63.5" cy="63.5" r="63.5" fill="#0E4D65"/>
<path d="M89.9611 74.7345C89.9611 63.6876 82.8941 54.2615 73.0441 50.7361C76.2637 48.1971 78.334 44.2627 78.334 39.8538C78.3342 32.2148 72.1195 26 64.4806 26C56.8416 26 50.6269 32.2148 50.6269 39.8536C50.6269 44.2626 52.6975 48.197 55.9169 50.736C46.067 54.2615 39 63.6875 39 74.7345C39 79.192 41.1167 83.1638 44.397 85.6995C44.7475 74.924 53.6212 66.2657 64.4806 66.2657C75.3399 66.2657 84.2136 74.924 84.5643 85.6995C87.8446 83.1636 89.9611 79.1918 89.9611 74.7345Z" fill="white"/>
<path d="M89.9611 74.7345C89.9611 63.6876 82.8941 54.2615 73.0441 50.7361C76.2637 48.1971 78.334 44.2627 78.334 39.8538C78.3342 32.2148 72.1195 26 64.4806 26C56.8416 26 50.6269 32.2148 50.6269 39.8536C50.6269 44.2626 52.6975 48.197 55.9169 50.736C46.067 54.2615 39 63.6875 39 74.7345C39 79.192 41.1167 83.1638 44.397 85.6995C44.7475 74.924 53.6212 66.2657 64.4806 66.2657C75.3399 66.2657 84.2136 74.924 84.5643 85.6995C87.8446 83.1636 89.9611 79.1918 89.9611 74.7345Z" fill="url(#paint1_linear_422_3076)"/>
<path d="M64.4808 70.7158C55.8555 70.7158 48.8384 77.733 48.8384 86.3582C48.8384 94.9834 55.8555 102.001 64.4808 102.001C73.106 102.001 80.1231 94.9834 80.1231 86.3582C80.1231 77.733 73.106 70.7158 64.4808 70.7158ZM63.1877 91.5349C63.1743 91.5351 63.1609 91.5352 63.1477 91.5352C62.5577 91.5352 61.9912 91.301 61.5733 90.8829L58.7468 88.0563C57.8772 87.1867 57.8772 85.7769 58.7468 84.9073C59.6164 84.0379 61.0263 84.0379 61.8957 84.9073L63.0904 86.102L67.0104 81.8906C67.8485 80.9904 69.2576 80.9403 70.1573 81.7779C71.0575 82.6158 71.1079 84.0248 70.2701 84.925L64.7776 90.8256C64.366 91.268 63.7918 91.5241 63.1877 91.5349Z" fill="white"/>
<defs>
<linearGradient id="paint0_linear_422_3076" x1="-5.39879" y1="-91.7222" x2="116.794" y2="-78.3902" gradientUnits="userSpaceOnUse">
<stop stop-color="#1FC76A"/>
<stop offset="1" stop-color="#009743"/>
</linearGradient>
<linearGradient id="paint1_linear_422_3076" x1="36.8336" y1="-17.1163" x2="86.0229" y2="-12.535" gradientUnits="userSpaceOnUse">
<stop stop-color="#1FC76A"/>
<stop offset="1" stop-color="#009743"/>
</linearGradient>
</defs>
</svg>
