<svg width="127" height="127" viewBox="0 0 127 127" fill="none" xmlns="http://www.w3.org/2000/svg">
<circle cx="63.5" cy="63.5" r="63.5" fill="#015A9E"/>
<circle cx="63.5" cy="63.5" r="63.5" fill="url(#paint0_linear_422_3028)"/>
<circle cx="63.5" cy="63.5" r="63.5" fill="#0E4D65"/>
<g clip-path="url(#clip0_422_3028)">
<path d="M67.8626 78.1582C67.8626 72.1571 71.1247 66.9042 75.9685 64.0778C60.4564 52.6377 37.8935 64.0446 38.0004 83.4656V89.2644C38.0004 90.2188 38.7741 90.9925 39.7285 90.9925H74.1312C70.318 88.0083 67.8626 83.3648 67.8626 78.1582Z" fill="white"/>
<path d="M67.8626 78.1582C67.8626 72.1571 71.1247 66.9042 75.9685 64.0778C60.4564 52.6377 37.8935 64.0446 38.0004 83.4656V89.2644C38.0004 90.2188 38.7741 90.9925 39.7285 90.9925H74.1312C70.318 88.0083 67.8626 83.3648 67.8626 78.1582Z" fill="url(#paint1_linear_422_3028)"/>
<path d="M75.6939 45.7598C75.6939 38.1605 69.5335 32 61.9342 32C43.682 32.7248 43.6873 58.7977 61.9343 59.5197C69.5335 59.5197 75.6939 53.3591 75.6939 45.7598Z" fill="white"/>
<path d="M75.6939 45.7598C75.6939 38.1605 69.5335 32 61.9342 32C43.682 32.7248 43.6873 58.7977 61.9343 59.5197C69.5335 59.5197 75.6939 53.3591 75.6939 45.7598Z" fill="url(#paint2_linear_422_3028)"/>
<path d="M95.1175 71.488L85.3768 81.2287C84.7022 81.9036 83.6071 81.9031 82.9329 81.2287L79.2309 77.5265C78.556 76.8517 78.556 75.7575 79.2309 75.0826C79.9057 74.4078 80.9999 74.4076 81.6748 75.0826L84.1548 77.5627L92.924 68.7936C84.8978 61.1622 71.2857 66.9636 71.3206 78.1557C71.3205 85.2324 77.078 90.9899 84.1548 90.9899C94.0644 91.0867 100.341 79.8351 95.1175 71.488Z" fill="white"/>
</g>
<defs>
<linearGradient id="paint0_linear_422_3028" x1="-5.39879" y1="-91.7222" x2="116.794" y2="-78.3902" gradientUnits="userSpaceOnUse">
<stop stop-color="#1FC76A"/>
<stop offset="1" stop-color="#009743"/>
</linearGradient>
<linearGradient id="paint1_linear_422_3028" x1="36.386" y1="36.7806" x2="72.7229" y2="41.5627" gradientUnits="userSpaceOnUse">
<stop stop-color="#1FC76A"/>
<stop offset="1" stop-color="#009743"/>
</linearGradient>
<linearGradient id="paint2_linear_422_3028" x1="47.0803" y1="12.1247" x2="73.49" y2="14.9985" gradientUnits="userSpaceOnUse">
<stop stop-color="#1FC76A"/>
<stop offset="1" stop-color="#009743"/>
</linearGradient>
<clipPath id="clip0_422_3028">
<rect width="59" height="59" fill="white" transform="translate(38 32)"/>
</clipPath>
</defs>
</svg>
