<svg width="22" height="24" viewBox="0 0 22 24" fill="none" xmlns="http://www.w3.org/2000/svg">
<path d="M21.5072 11.4227V19.4506C21.5072 20.5151 21.0843 21.5361 20.3315 22.2888C19.5788 23.0416 18.5578 23.4645 17.4933 23.4645H11.8738C11.6609 23.4645 11.4567 23.3799 11.3061 23.2294C11.1556 23.0788 11.071 22.8746 11.071 22.6617C11.071 22.4488 11.1556 22.2446 11.3061 22.094C11.4567 21.9435 11.6609 21.8589 11.8738 21.8589H17.4933C18.132 21.8589 18.7446 21.6052 19.1962 21.1535C19.6479 20.7019 19.9016 20.0893 19.9016 19.4506H17.4933C16.8545 19.4506 16.242 19.1968 15.7903 18.7452C15.3386 18.2935 15.0849 17.6809 15.0849 17.0422V13.0283C15.0849 12.3895 15.3386 11.777 15.7903 11.3253C16.242 10.8737 16.8545 10.6199 17.4933 10.6199H19.8665C19.7146 8.95106 19.091 7.35989 18.0685 6.03224C17.046 4.70459 15.6668 3.69529 14.0921 3.12223C12.5174 2.54916 10.8121 2.43599 9.17545 2.79593C7.53881 3.15588 6.03837 3.97407 4.84939 5.15495C3.37092 6.61392 2.45902 8.55082 2.27646 10.6199H4.6487C5.28743 10.6199 5.90001 10.8737 6.35166 11.3253C6.80332 11.777 7.05705 12.3895 7.05705 13.0283V17.0422C7.05705 17.6809 6.80332 18.2935 6.35166 18.7452C5.90001 19.1968 5.28743 19.4506 4.6487 19.4506H3.04312C2.40439 19.4506 1.79181 19.1968 1.34016 18.7452C0.888503 18.2935 0.634766 17.6809 0.634766 17.0422V11.4227C0.637016 9.35542 1.25253 7.33529 2.40341 5.61799C3.55428 3.90068 5.18877 2.56342 7.09999 1.77547C9.01121 0.987519 11.1132 0.784297 13.14 1.19153C15.1668 1.59876 17.0272 2.59814 18.4857 4.06316C19.4487 5.03083 20.2113 6.17899 20.7297 7.44188C21.2482 8.70476 21.5124 10.0575 21.5072 11.4227Z" fill="#1FC76A"/>
</svg>
