<svg width="127" height="127" viewBox="0 0 127 127" fill="none" xmlns="http://www.w3.org/2000/svg">
<circle cx="63.5" cy="63.5" r="63.5" fill="#015A9E"/>
<circle cx="63.5" cy="63.5" r="63.5" fill="#0E4D65"/>
<path fill-rule="evenodd" clip-rule="evenodd" d="M79.7535 68.1935C79.4011 69.4163 78.9144 70.5822 78.3103 71.6742L79.5317 74.0713C79.922 74.8373 79.7808 75.729 79.1728 76.337L76.3372 79.1728C75.7292 79.7808 74.8376 79.9219 74.0715 79.5317L71.6742 78.3101C70.5823 78.9142 69.4164 79.4009 68.1937 79.7535L67.3629 82.3104C67.0972 83.1281 66.3668 83.6588 65.5071 83.6588H61.4968C60.6369 83.6588 59.9065 83.1283 59.6408 82.3105L58.8101 79.7535C57.5872 79.401 56.4213 78.9142 55.3294 78.3103L52.9323 79.5317C52.1661 79.9221 51.2745 79.7808 50.6665 79.1728L47.8308 76.337C47.2228 75.729 47.0816 74.8375 47.4719 74.0713L48.6934 71.674C48.0894 70.582 47.6026 69.4162 47.2501 68.1935L44.6931 67.3627C43.8754 67.097 43.3448 66.3666 43.3448 65.5068V61.4965C43.3448 60.6367 43.8754 59.9062 44.693 59.6405L47.2501 58.8097C47.6025 57.5869 48.0894 56.4211 48.6933 55.3291L47.4719 52.9319C47.0815 52.1658 47.2228 51.2742 47.8308 50.6662L50.6664 47.8305C51.2744 47.2225 52.1661 47.0813 52.9321 47.4716L55.3294 48.6931C56.4213 48.0891 57.5872 47.6023 58.8099 47.2498L59.6407 44.6928C59.9064 43.8751 60.6368 43.3444 61.4965 43.3444H65.5068C66.3667 43.3444 67.097 43.875 67.3626 44.6928L68.1935 47.2502C69.4162 47.6026 70.582 48.0893 71.6738 48.6931L74.0712 47.4716C74.8374 47.0812 75.729 47.2225 76.337 47.8305L79.1727 50.6661C79.7807 51.2741 79.9219 52.1657 79.5316 52.9318L78.3102 55.3289C78.9141 56.421 79.401 57.5868 79.7534 58.8096L82.3105 59.6404C83.1282 59.9061 83.6588 60.6365 83.6588 61.4962V65.5065C83.6588 66.3664 83.1283 67.0966 82.3105 67.3625L79.7534 68.1932L79.7535 68.1935ZM41.4572 48.1938L44.0166 50.7532L46.5884 39.8521L35.6874 42.4239L38.3106 45.047C29.337 57.2643 30.3732 74.5324 41.422 85.5812C51.3645 95.5237 66.3429 97.3583 78.1455 91.0878L74.8746 87.8169C64.9345 92.4653 52.7329 90.6863 44.525 82.4784C35.1942 73.1476 34.1735 58.6569 41.4572 48.1938ZM80.4147 87.1513L91.3158 84.5795L88.6936 81.9572C97.6672 69.74 96.6302 52.4712 85.5812 41.4222C75.6387 31.4797 60.6601 29.6451 48.8576 35.9155L52.1285 39.1865C62.0686 34.5381 74.2702 36.3171 82.4782 44.525C91.809 53.8558 92.8306 68.3471 85.5465 78.8102L82.9864 76.2501L80.4146 87.1511L80.4147 87.1513ZM67.4209 59.5826C65.2565 57.4182 61.7472 57.4182 59.5828 59.5826C57.4184 61.7471 57.4184 65.2563 59.5828 67.4207C61.7472 69.5851 65.2565 69.5851 67.4209 67.4207C69.5853 65.2563 69.5853 61.7471 67.4209 59.5826ZM71.4719 55.5317C67.0701 51.13 59.9336 51.13 55.5319 55.5317C51.1301 59.9334 51.1301 67.0699 55.5319 71.4717C59.9336 75.8734 67.0701 75.8734 71.4719 71.4717C75.8736 67.0699 75.8736 59.9334 71.4719 55.5317Z" fill="white"/>
<path fill-rule="evenodd" clip-rule="evenodd" d="M79.7535 68.1935C79.4011 69.4163 78.9144 70.5822 78.3103 71.6742L79.5317 74.0713C79.922 74.8373 79.7808 75.729 79.1728 76.337L76.3372 79.1728C75.7292 79.7808 74.8376 79.9219 74.0715 79.5317L71.6742 78.3101C70.5823 78.9142 69.4164 79.4009 68.1937 79.7535L67.3629 82.3104C67.0972 83.1281 66.3668 83.6588 65.5071 83.6588H61.4968C60.6369 83.6588 59.9065 83.1283 59.6408 82.3105L58.8101 79.7535C57.5872 79.401 56.4213 78.9142 55.3294 78.3103L52.9323 79.5317C52.1661 79.9221 51.2745 79.7808 50.6665 79.1728L47.8308 76.337C47.2228 75.729 47.0816 74.8375 47.4719 74.0713L48.6934 71.674C48.0894 70.582 47.6026 69.4162 47.2501 68.1935L44.6931 67.3627C43.8754 67.097 43.3448 66.3666 43.3448 65.5068V61.4965C43.3448 60.6367 43.8754 59.9062 44.693 59.6405L47.2501 58.8097C47.6025 57.5869 48.0894 56.4211 48.6933 55.3291L47.4719 52.9319C47.0815 52.1658 47.2228 51.2742 47.8308 50.6662L50.6664 47.8305C51.2744 47.2225 52.1661 47.0813 52.9321 47.4716L55.3294 48.6931C56.4213 48.0891 57.5872 47.6023 58.8099 47.2498L59.6407 44.6928C59.9064 43.8751 60.6368 43.3444 61.4965 43.3444H65.5068C66.3667 43.3444 67.097 43.875 67.3626 44.6928L68.1935 47.2502C69.4162 47.6026 70.582 48.0893 71.6738 48.6931L74.0712 47.4716C74.8374 47.0812 75.729 47.2225 76.337 47.8305L79.1727 50.6661C79.7807 51.2741 79.9219 52.1657 79.5316 52.9318L78.3102 55.3289C78.9141 56.421 79.401 57.5868 79.7534 58.8096L82.3105 59.6404C83.1282 59.9061 83.6588 60.6365 83.6588 61.4962V65.5065C83.6588 66.3664 83.1283 67.0966 82.3105 67.3625L79.7534 68.1932L79.7535 68.1935ZM41.4572 48.1938L44.0166 50.7532L46.5884 39.8521L35.6874 42.4239L38.3106 45.047C29.337 57.2643 30.3732 74.5324 41.422 85.5812C51.3645 95.5237 66.3429 97.3583 78.1455 91.0878L74.8746 87.8169C64.9345 92.4653 52.7329 90.6863 44.525 82.4784C35.1942 73.1476 34.1735 58.6569 41.4572 48.1938ZM80.4147 87.1513L91.3158 84.5795L88.6936 81.9572C97.6672 69.74 96.6302 52.4712 85.5812 41.4222C75.6387 31.4797 60.6601 29.6451 48.8576 35.9155L52.1285 39.1865C62.0686 34.5381 74.2702 36.3171 82.4782 44.525C91.809 53.8558 92.8306 68.3471 85.5465 78.8102L82.9864 76.2501L80.4146 87.1511L80.4147 87.1513ZM67.4209 59.5826C65.2565 57.4182 61.7472 57.4182 59.5828 59.5826C57.4184 61.7471 57.4184 65.2563 59.5828 67.4207C61.7472 69.5851 65.2565 69.5851 67.4209 67.4207C69.5853 65.2563 69.5853 61.7471 67.4209 59.5826ZM71.4719 55.5317C67.0701 51.13 59.9336 51.13 55.5319 55.5317C51.1301 59.9334 51.1301 67.0699 55.5319 71.4717C59.9336 75.8734 67.0701 75.8734 71.4719 71.4717C75.8736 67.0699 75.8736 59.9334 71.4719 55.5317Z" fill="url(#paint0_linear_422_3021)"/>
<path fill-rule="evenodd" clip-rule="evenodd" d="M41.6955 48.4321L44.2549 50.9915L46.8267 40.0904L35.9257 42.6622L38.5488 45.2853C29.5753 57.5026 30.6115 74.7707 41.6603 85.8195C51.6028 95.762 66.5812 97.5966 78.3838 91.3261L75.1129 88.0552C65.1728 92.7036 52.9712 90.9246 44.7633 82.7167C35.4325 73.3859 34.4118 58.8952 41.6955 48.4321ZM80.653 87.3896L91.5541 84.8177L88.9318 82.1955C97.9055 69.9783 96.8684 52.7095 85.8194 41.6605C75.877 31.7179 60.8984 29.8833 49.0958 36.1538L52.3668 39.4248C62.3068 34.7764 74.5084 36.5554 82.7165 44.7633C92.0473 54.0941 93.0689 68.5854 85.7848 79.0485L83.2247 76.4883L80.653 87.3896Z" fill="white"/>
<defs>
<linearGradient id="paint0_linear_422_3021" x1="29.6226" y1="-12.8245" x2="89.7081" y2="-6.26875" gradientUnits="userSpaceOnUse">
<stop stop-color="#1FC76A"/>
<stop offset="1" stop-color="#009743"/>
</linearGradient>
</defs>
</svg>
