<svg width="127" height="127" viewBox="0 0 127 127" fill="none" xmlns="http://www.w3.org/2000/svg">
<circle cx="63.5" cy="63.5" r="63.5" fill="#015A9E"/>
<circle cx="63.5" cy="63.5" r="63.5" fill="url(#paint0_linear_422_3016)"/>
<circle cx="63.5" cy="63.5" r="63.5" fill="#0E4D65"/>
<g clip-path="url(#clip0_422_3016)">
<path d="M59.067 37H39.192C37.9783 37 36.9839 37.9944 36.9839 39.2081V63.5C36.9839 64.7144 37.9783 65.7081 39.192 65.7081H59.067C60.2814 65.7081 61.2758 64.7144 61.2758 63.5V39.2081C61.2758 37.9944 60.2814 37 59.067 37Z" fill="white"/>
<path d="M59.067 37H39.192C37.9783 37 36.9839 37.9944 36.9839 39.2081V63.5C36.9839 64.7144 37.9783 65.7081 39.192 65.7081H59.067C60.2814 65.7081 61.2758 64.7144 61.2758 63.5V39.2081C61.2758 37.9944 60.2814 37 59.067 37Z" fill="url(#paint1_linear_422_3016)"/>
<path d="M87.7869 61.2803H67.9119C66.6975 61.2803 65.7031 62.274 65.7031 63.4884V87.7803C65.7031 88.994 66.6975 89.9884 67.9119 89.9884H87.7869C89.0006 89.9884 89.995 88.994 89.995 87.7803V63.4884C89.995 62.274 89.0006 61.2803 87.7869 61.2803Z" fill="white"/>
<path d="M87.7869 61.2803H67.9119C66.6975 61.2803 65.7031 62.274 65.7031 63.4884V87.7803C65.7031 88.994 66.6975 89.9884 67.9119 89.9884H87.7869C89.0006 89.9884 89.995 88.994 89.995 87.7803V63.4884C89.995 62.274 89.0006 61.2803 87.7869 61.2803Z" fill="url(#paint2_linear_422_3016)"/>
<path d="M59.067 70.125H39.192C37.9783 70.125 36.9839 71.1194 36.9839 72.3331V87.7919C36.9839 89.0056 37.9783 90 39.192 90H59.067C60.2814 90 61.2758 89.0056 61.2758 87.7919V72.3331C61.2758 71.1194 60.2814 70.125 59.067 70.125Z" fill="white"/>
<path d="M87.7869 37H67.9119C66.6975 37 65.7031 37.9944 65.7031 39.2081V54.6669C65.7031 55.8806 66.6975 56.875 67.9119 56.875H87.7869C89.0006 56.875 89.995 55.8806 89.995 54.6669V39.2081C89.995 37.9944 89.0006 37 87.7869 37Z" fill="white"/>
</g>
<defs>
<linearGradient id="paint0_linear_422_3016" x1="-5.39879" y1="-91.7222" x2="116.794" y2="-78.3902" gradientUnits="userSpaceOnUse">
<stop stop-color="#1FC76A"/>
<stop offset="1" stop-color="#009743"/>
</linearGradient>
<linearGradient id="paint1_linear_422_3016" x1="35.9512" y1="16.2664" x2="59.402" y2="18.4314" gradientUnits="userSpaceOnUse">
<stop stop-color="#1FC76A"/>
<stop offset="1" stop-color="#009743"/>
</linearGradient>
<linearGradient id="paint2_linear_422_3016" x1="64.6705" y1="40.5466" x2="88.1213" y2="42.7117" gradientUnits="userSpaceOnUse">
<stop stop-color="#1FC76A"/>
<stop offset="1" stop-color="#009743"/>
</linearGradient>
<clipPath id="clip0_422_3016">
<rect width="53" height="53" fill="white" transform="translate(37 37)"/>
</clipPath>
</defs>
</svg>
