<svg width="127" height="127" viewBox="0 0 127 127" fill="none" xmlns="http://www.w3.org/2000/svg">
<circle cx="63.5" cy="63.5" r="63.5" fill="#015A9E"/>
<circle cx="63.5" cy="63.5" r="63.5" fill="url(#paint0_linear_422_3056)"/>
<circle cx="63.5" cy="63.5" r="63.5" fill="#0E4D65"/>
<g clip-path="url(#clip0_422_3056)">
<path d="M57.9941 61.5C63.517 61.5 67.9941 57.0228 67.9941 51.5C67.9941 45.9772 63.517 41.5 57.9941 41.5C52.4713 41.5 47.9941 45.9772 47.9941 51.5C47.9941 57.0228 52.4713 61.5 57.9941 61.5Z" fill="white"/>
<path d="M92.2769 89.6426L77.3769 74.7426C81.4254 69.7835 83.4136 63.4582 82.9304 57.0746C82.4471 50.691 79.5294 44.7371 74.7803 40.444C70.0313 36.1508 63.8142 33.8467 57.4144 34.0079C51.0145 34.1691 44.9213 36.7834 40.3945 41.3102C35.8676 45.8371 33.2534 51.9303 33.0922 58.3301C32.9309 64.73 35.2351 70.9471 39.5282 75.6961C43.8214 80.4451 49.7752 83.3629 56.1588 83.8461C62.5425 84.3294 68.8677 82.3412 73.8269 78.2926L88.7269 93.1926C89.2008 93.6574 89.8381 93.9177 90.5019 93.9177C91.1656 93.9177 91.8029 93.6574 92.2769 93.1926C92.7452 92.7206 93.0081 92.0826 93.0081 91.4176C93.0081 90.7527 92.7452 90.1147 92.2769 89.6426ZM58.0019 63.9176C55.02 63.9139 52.1057 64.8055 49.6363 66.477C47.167 68.1485 45.2563 70.5228 44.1519 73.2926C42.2043 71.4398 40.6546 69.2096 39.5973 66.7382C38.5399 64.2667 37.9971 61.6058 38.0019 58.9176C37.9962 55.6262 38.8031 52.3842 40.3507 49.4792C41.8984 46.5743 44.1391 44.0963 46.8741 42.2649C49.6091 40.4336 52.7538 39.3056 56.0292 38.9809C59.3047 38.6563 62.6096 39.1451 65.6509 40.4039C68.6921 41.6627 71.3757 43.6527 73.4635 46.1973C75.5513 48.7419 76.9788 51.7625 77.6194 54.991C78.26 58.2196 78.0939 61.5563 77.1357 64.7053C76.1776 67.8542 74.4571 70.718 72.1269 73.0426C72.0416 73.1327 71.9496 73.2163 71.8519 73.2926C70.7474 70.5228 68.8368 68.1485 66.3674 66.477C63.8981 64.8055 60.9837 63.9139 58.0019 63.9176Z" fill="white"/>
<path d="M92.2769 89.6426L77.3769 74.7426C81.4254 69.7835 83.4136 63.4582 82.9304 57.0746C82.4471 50.691 79.5294 44.7371 74.7803 40.444C70.0313 36.1508 63.8142 33.8467 57.4144 34.0079C51.0145 34.1691 44.9213 36.7834 40.3945 41.3102C35.8676 45.8371 33.2534 51.9303 33.0922 58.3301C32.9309 64.73 35.2351 70.9471 39.5282 75.6961C43.8214 80.4451 49.7752 83.3629 56.1588 83.8461C62.5425 84.3294 68.8677 82.3412 73.8269 78.2926L88.7269 93.1926C89.2008 93.6574 89.8381 93.9177 90.5019 93.9177C91.1656 93.9177 91.8029 93.6574 92.2769 93.1926C92.7452 92.7206 93.0081 92.0826 93.0081 91.4176C93.0081 90.7527 92.7452 90.1147 92.2769 89.6426ZM58.0019 63.9176C55.02 63.9139 52.1057 64.8055 49.6363 66.477C47.167 68.1485 45.2563 70.5228 44.1519 73.2926C42.2043 71.4398 40.6546 69.2096 39.5973 66.7382C38.5399 64.2667 37.9971 61.6058 38.0019 58.9176C37.9962 55.6262 38.8031 52.3842 40.3507 49.4792C41.8984 46.5743 44.1391 44.0963 46.8741 42.2649C49.6091 40.4336 52.7538 39.3056 56.0292 38.9809C59.3047 38.6563 62.6096 39.1451 65.6509 40.4039C68.6921 41.6627 71.3757 43.6527 73.4635 46.1973C75.5513 48.7419 76.9788 51.7625 77.6194 54.991C78.26 58.2196 78.0939 61.5563 77.1357 64.7053C76.1776 67.8542 74.4571 70.718 72.1269 73.0426C72.0416 73.1327 71.9496 73.2163 71.8519 73.2926C70.7474 70.5228 68.8368 68.1485 66.3674 66.477C63.8981 64.8055 60.9837 63.9139 58.0019 63.9176Z" fill="url(#paint1_linear_422_3056)"/>
</g>
<defs>
<linearGradient id="paint0_linear_422_3056" x1="-5.39879" y1="-91.7222" x2="116.794" y2="-78.3902" gradientUnits="userSpaceOnUse">
<stop stop-color="#1FC76A"/>
<stop offset="1" stop-color="#009743"/>
</linearGradient>
<linearGradient id="paint1_linear_422_3056" x1="30.5369" y1="-9.27389" x2="88.1925" y2="-2.98267" gradientUnits="userSpaceOnUse">
<stop stop-color="#1FC76A"/>
<stop offset="1" stop-color="#009743"/>
</linearGradient>
<clipPath id="clip0_422_3056">
<rect width="60" height="60" fill="white" transform="translate(33 34)"/>
</clipPath>
</defs>
</svg>
